# xmcd
#
# Track frame offsets:
#	150
#	12555
#	26435
#	38202
#	58057
#	72602
#	99462
#	114745
#	128805
#	149372
#	170527
#	188780
#	201507
#	214740
#	232747
#	246707
#
# Disc length: 3509 seconds
#
# Revision: 2
# Processed by: cddbd v1.5.1PL0 Copyright (c) Steve Scherf et al.
# Submitted via: audiograbber 1.83.01
#
DISCID=f50db310
DTITLE=Minnie Riperton - Her Chess Years
DYEAR=1997
DGENRE=R&B
TTITLE0=The Gems - All Of It
TTITLE1=Andrea Davis - Lonely Girl
TTITLE2=The Gems - Happy New Love
TTITLE3=Rotary Connection - Magical World
TTITLE4=Rotary Connection - Christmas Love
TTITLE5=Rotary Connection - Silent Night
TTITLE6=Rotary Connection - We're Going Wrong
TTITLE7=Rotary Connection - Respect
TTITLE8=Rotary Connection - Tales Of Brave Ulysses
TTITLE9=Rotary Connection - The Burning Of The Midnight Lamp
TTITLE10=Rotary Connection - A-Muse
TTITLE11=Rotary Connection - Love Me Now
TTITLE12=Rotary Connection - Living Alone
TTITLE13=Rotary Connection - They Call It Stormy Monday
TTITLE14=Rotary Connection - Want You To Know
TTITLE15=Rotary Connection - If I Sing My Song
EXTD=
EXTT0=The Gems\n
EXTT1=Andrea Davis\n
EXTT2=The Gems\n
EXTT3=Rotary Connection\n
EXTT4=Rotary Connection\n
EXTT5=Rotary Connection\n
EXTT6=Rotary Connection\n
EXTT7=Rotary Connection\n
EXTT8=Rotary Connection\n
EXTT9=Rotary Connection\n
EXTT10=Rotary Connection\n
EXTT11=Rotary Connection\n
EXTT12=Rotary Connection\n
EXTT13=Rotary Connection\n
EXTT14=Rotary Connection\n
EXTT15=Rotary Connection\n
PLAYORDER=
